<svg xmlns="http://www.w3.org/2000/svg" xmlns:xlink="http://www.w3.org/1999/xlink" fill="none" version="1.1" width="340" height="71" viewBox="0 0 340 71"><defs><clipPath id="master_svg0_1_2016"><rect x="0" y="0" width="340" height="71" rx="0"/></clipPath><clipPath id="master_svg1_1_58"><rect x="14" y="15" width="42" height="41" rx="0"/></clipPath></defs><g><rect x="0" y="0" width="340" height="71" rx="0" fill="#EFEFEF" fill-opacity="1"/><g clip-path="url(#master_svg0_1_2016)"><rect x="0" y="0" width="340" height="71" rx="0" fill="#FFFFFF" fill-opacity="1"/><g><g><path d="M69.5856111328125,19.6651681640625C69.5815111328125,18.9462681640625,69.5737111328125,18.2276681640625,69.5543111328125,17.5078681640625C69.5134111328125,15.942168164062501,69.4229111328125,14.3622681640625,69.1508111328125,12.8132681640625C68.8747111328125,11.2401681640625,68.4234111328125,9.7774881640625,67.7121111328125,8.3484981640625C67.0139111328125,6.9451581640625,66.1011111328125,5.6609681640625,65.0123111328125,4.5473481640625C63.9237111328125,3.4337181640625,62.6681111328125,2.5002781640625,61.2954111328125,1.7857881640625C59.8994111328125,1.0591381640625,58.4691111328125,0.5976551640625,56.9325111328125,0.3152771640625C55.4172111328125,0.03614816406249999,53.8724111328125,-0.055811135937500006,52.3404111328125,-0.09817993593749999C51.6370111328125,-0.1176792359375,50.9343111328125,-0.1258640859375,50.2311111328125,-0.1303176259375C49.3965111328125,-0.1351318359375,48.5613111328125,-0.1351318359375,47.7269111328125,-0.1351318359375L29.2250111328125,-0.1351318359375L21.5600111328125,-0.1351318359375C20.7248111328125,-0.1351318359375,19.8906111328125,-0.1351318359375,19.0562111328125,-0.1301968359375C18.3528111328125,-0.1257432859375,17.6492111328125,-0.1175584359375,16.9469111328125,-0.0980591359375C16.5640111328125,-0.08746693593749999,16.1802111328125,-0.0737452359375,15.796211132812498,-0.0548477359375C14.6443111328125,0.0019651640624999966,13.4906111328125,0.10608116406250001,12.3547111328125,0.3153981640625C11.2022111328125,0.5272421640625,10.1094111328125,0.8397121640625,9.0462511328125,1.2892781640625C8.6919011328125,1.4390181640625,8.3407211328125,1.6041581640625,7.991671132812501,1.7857881640625C6.9621611328125,2.3216581640625,5.9983211328125,2.9806581640625,5.1216911328125,3.7464281640625C4.8294811328125,4.0017281640625,4.5469111328125,4.2688181640625,4.2748311328125,4.5472281640625C3.1857711328125,5.6608481640625,2.2730111328125,6.9450381640625,1.5747811328125,8.3483781640625C0.8634911328124999,9.7773681640625,0.4127601328125,11.2400681640625,0.13643513281250003,12.8130681640625C-0.1354168671875,14.3620681640625,-0.2257989671875,15.942068164062501,-0.2669887671875,17.5077681640625C-0.2862890671875,18.2275681640625,-0.2944093571875,18.9461681640625,-0.2989990771875,19.6650681640625C-0.3042949771875,20.5189681640625,-0.3035888671875,21.3729681640625,-0.3035888671875,22.2265681640625L-0.3035888671875,33.8802681640625L-0.3035888671875,48.9892681640625C-0.3035888671875,49.8436681640625,-0.3044126621875,50.6968681640625,-0.2989991571875,51.5513681640625C-0.2944094371875,52.2702681640625,-0.28628916718749997,52.9888681640625,-0.2669888671875,53.7074681640625C-0.22579906718749998,55.2740681640625,-0.1355348671875,56.8542681640625,0.13643513281250003,58.4025681640625C0.4127591328125,59.9751681640625,0.8634911328124999,61.4391681640625,1.5747811328125,62.8677681640625C2.2730111328125,64.2714681640625,3.1857711328125,65.5553681640625,4.2748311328125,66.6684681640625C5.3630611328125,67.7825681640625,6.6190011328125,68.7158681640625,7.9917911328125,69.4308681640625C9.3878911328125,70.1576681640625,10.8181111328125,70.6184681640625,12.3551111328125,70.9008681640625C13.8694111328125,71.1796681640625,15.4153111328125,71.2723681640625,16.9470111328125,71.3142681640625C17.6494111328125,71.3333681640625,18.3529111328125,71.3418681640625,19.0563111328125,71.3459681640625C19.8907111328125,71.3521681640625,20.7249111328125,71.3512681640625,21.5602111328125,71.3512681640625L47.7269111328125,71.3512681640625C48.5613111328125,71.3512681640625,49.3965111328125,71.3521681640625,50.2310111328125,71.3459681640625C50.9342111328125,71.3419681640625,51.6369111328125,71.3333681640625,52.3403111328125,71.3142681640625C53.8723111328125,71.2723681640625,55.4171111328125,71.1795681640625,56.9324111328125,70.9008681640625C58.4690111328125,70.6184681640625,59.8993111328125,70.1574681640625,61.2953111328125,69.4308681640625C62.6680111328125,68.7160681640625,63.923611132812496,67.7825681640625,65.0122111328125,66.6684681640625C66.1010111328125,65.5551681640625,67.0139111328125,64.2714681640625,67.7120111328125,62.8677681640625C68.4232111328125,61.4391681640625,68.8746111328125,59.9752681640625,69.1507111328125,58.4025681640625C69.4227111328125,56.8542681640625,69.5133111328125,55.2740681640625,69.5542111328125,53.7074681640625C69.5735111328125,52.9888681640625,69.5813111328125,52.2703681640625,69.5855111328125,51.5513681640625C69.5909111328125,50.6968681640625,69.5905111328125,49.8436681640625,69.5905111328125,48.9892681640625L69.5905111328125,22.2265681640625C69.5906111328125,21.3729681640625,69.5909111328125,20.5189681640625,69.5856111328125,19.6651681640625Z" fill="#F05138" fill-opacity="1"/></g></g><g clip-path="url(#master_svg1_1_58)"><g><path d="M16.875,44.89583L16.875,50.875Q16.875,50.94869,16.88222,51.02203Q16.88945,51.09536,16.90382,51.16763Q16.9182,51.23991,16.93959,51.31043Q16.96098,51.38094,16.98918,51.449020000000004Q17.01738,51.51711,17.05212,51.58209Q17.08686,51.64708,17.1278,51.708349999999996Q17.16874,51.76963,17.21548,51.826589999999996Q17.26223,51.88355,17.31434,51.93566Q17.36645,51.98777,17.42341,52.03452Q17.480373,52.08126,17.541645,52.1222Q17.602916,52.16314,17.667905,52.19788Q17.732894,52.23262,17.800975,52.26082Q17.869056,52.28902,17.939573,52.31041Q18.01009,52.3318,18.082365,52.346180000000004Q18.154639,52.36055,18.227974,52.367779999999996Q18.3013097,52.375,18.375,52.375L51.625,52.375Q51.6987,52.375,51.772,52.367779999999996Q51.8454,52.36055,51.9176,52.346180000000004Q51.9899,52.3318,52.0604,52.31041Q52.1309,52.28902,52.199,52.26082Q52.2671,52.23262,52.3321,52.19788Q52.3971,52.16314,52.4584,52.1222Q52.5196,52.08126,52.5766,52.03452Q52.6336,51.98777,52.6857,51.93566Q52.7378,51.88355,52.7845,51.826589999999996Q52.8313,51.76963,52.8722,51.708349999999996Q52.9131,51.64708,52.9479,51.58209Q52.9826,51.51711,53.0108,51.449020000000004Q53.039,51.38094,53.0604,51.31043Q53.0818,51.23991,53.0962,51.16763Q53.1106,51.09536,53.1178,51.02203Q53.125,50.94869,53.125,50.875L53.125,44.89583Q53.125,43.556267,52.1603,42.614488Q51.2107,41.6875,49.875,41.6875L20.125,41.6875Q18.789366,41.6875,17.839763,42.614483Q16.875,43.556266,16.875,44.89583ZM19.875,49.375L50.125,49.375L50.125,44.89583Q50.125,44.6875,49.875,44.6875L20.125,44.6875Q19.875,44.6875,19.875,44.89583L19.875,49.375Z" fill-rule="evenodd" fill="#FFFFFF" fill-opacity="1"/></g><g><path d="M44.36076,21.625L50.75,21.625Q50.8237,21.625,50.897,21.61778Q50.9704,21.61055,51.0426,21.59618Q51.1149,21.5818,51.1854,21.56041Q51.2559,21.53902,51.324,21.51082Q51.3921,21.48262,51.4571,21.44788Q51.5221,21.41314,51.5834,21.3722Q51.6446,21.33126,51.7016,21.28452Q51.7586,21.23777,51.8107,21.18566Q51.8628,21.13355,51.9095,21.07659Q51.9563,21.019627,51.9972,20.958355Q52.0381,20.897084,52.072900000000004,20.832095Q52.1076,20.767106,52.1358,20.699025Q52.164,20.630944,52.1854,20.560427Q52.2068,20.48991,52.221199999999996,20.417635Q52.2356,20.345361,52.2428,20.272026Q52.25,20.1986903,52.25,20.125Q52.25,20.0513097,52.2428,19.977974Q52.2356,19.904639,52.221199999999996,19.832365Q52.2068,19.76009,52.1854,19.689573Q52.164,19.619056,52.1358,19.550975Q52.1076,19.482894,52.072900000000004,19.417905Q52.0381,19.352916,51.9972,19.291645Q51.9563,19.230373,51.9095,19.17341Q51.8628,19.11645,51.8107,19.06434Q51.7586,19.01223,51.7016,18.96548Q51.6446,18.91874,51.5834,18.8778Q51.5221,18.83686,51.4571,18.80212Q51.3921,18.76738,51.324,18.73918Q51.2559,18.71098,51.1854,18.68959Q51.1149,18.6682,51.0426,18.65382Q50.9704,18.63945,50.897,18.63222Q50.8237,18.625,50.75,18.625L43.75,18.625Q43.60454,18.625,43.4618,18.65295Q43.31905,18.68089,43.18433,18.73575Q43.04962,18.7906,42.92795,18.87032Q42.80628,18.950029999999998,42.7022,19.05164L37.45219,24.17664Q37.39946,24.22811,37.35203,24.28451Q37.3046,24.34091,37.26293,24.40168Q37.22125,24.46245,37.18573,24.52702Q37.15022,24.59158,37.1212,24.65932Q37.09218,24.72706,37.06994,24.79731Q37.0477,24.86757,37.03245,24.93966Q37.01721,25.01176,37.009100000000004,25.085Q37.001,25.15824,37.00011,25.23193Q36.99922,25.30561,37.00556,25.37903Q37.0119,25.45245,37.0254,25.52489Q37.03891,25.59733,37.05945,25.6681Q37.07999,25.73887,37.10737,25.807290000000002Q37.13474,25.875700000000002,37.1687,25.941110000000002Q37.20265,26.00651,37.24285,26.06827Q37.28305,26.130029999999998,37.3291,26.18755Q37.37516,26.24507,37.42664,26.2978Q37.43926,26.31074,37.45219,26.32336L42.7022,31.4484Q42.80628,31.55,42.92795,31.6297Q43.04962,31.709400000000002,43.18433,31.7643Q43.31905,31.8191,43.4618,31.847099999999998Q43.60454,31.875,43.75,31.875L50.75,31.875Q50.8237,31.875,50.897,31.867800000000003Q50.9704,31.860599999999998,51.0426,31.8462Q51.1149,31.8318,51.1854,31.8104Q51.2559,31.789,51.324,31.7608Q51.3921,31.732599999999998,51.4571,31.6979Q51.5221,31.6631,51.5834,31.6222Q51.6446,31.5813,51.7016,31.5345Q51.7586,31.4878,51.8107,31.4357Q51.8628,31.3836,51.9095,31.3266Q51.9563,31.2696,51.9972,31.208399999999997Q52.0381,31.147100000000002,52.072900000000004,31.0821Q52.1076,31.0171,52.1358,30.948999999999998Q52.164,30.8809,52.1854,30.8104Q52.2068,30.7399,52.221199999999996,30.6676Q52.2356,30.595399999999998,52.2428,30.522Q52.25,30.448700000000002,52.25,30.375Q52.25,30.301299999999998,52.2428,30.228Q52.2356,30.154600000000002,52.221199999999996,30.08236Q52.2068,30.010089999999998,52.1854,29.93957Q52.164,29.86905,52.1358,29.80097Q52.1076,29.732889999999998,52.072900000000004,29.6679Q52.0381,29.60291,51.9972,29.54164Q51.9563,29.48037,51.9095,29.42341Q51.8628,29.36645,51.8107,29.31434Q51.7586,29.262230000000002,51.7016,29.21548Q51.6446,29.16873,51.5834,29.127789999999997Q51.5221,29.08685,51.4571,29.052120000000002Q51.3921,29.01738,51.324,28.989179999999998Q51.2559,28.96098,51.1854,28.939590000000003Q51.1149,28.9182,51.0426,28.90382Q50.9704,28.88945,50.897,28.88222Q50.8237,28.875,50.75,28.875L44.36076,28.875L40.64735,25.25L44.36076,21.625Z" fill-rule="evenodd" fill="#FFFFFF" fill-opacity="1"/></g><g><ellipse cx="21" cy="25.250010013580322" rx="3.5" ry="3.4166665077209473" fill-opacity="0" stroke-opacity="1" stroke="#FFFFFF" fill="none" stroke-width="3"/></g><g><path d="M24.5,26.75L38.5,26.75Q38.5737,26.75,38.647,26.74278Q38.7204,26.73555,38.7926,26.72118Q38.8649,26.7068,38.9354,26.68541Q39.0059,26.66402,39.074,26.63582Q39.1421,26.60762,39.2071,26.57288Q39.2721,26.53814,39.3334,26.4972Q39.3946,26.45626,39.4516,26.40952Q39.5086,26.36277,39.5607,26.31066Q39.6128,26.25855,39.6595,26.20159Q39.7063,26.144627,39.7472,26.083355Q39.7881,26.022084,39.822900000000004,25.957095Q39.8576,25.892106,39.8858,25.824025Q39.914,25.755944,39.9354,25.685427Q39.9568,25.61491,39.971199999999996,25.542635Q39.9856,25.470361,39.9928,25.397026Q40,25.3236903,40,25.25Q40,25.1763097,39.9928,25.102974Q39.9856,25.029639,39.971199999999996,24.957365Q39.9568,24.88509,39.9354,24.814573Q39.914,24.744056,39.8858,24.675975Q39.8576,24.607894,39.822900000000004,24.542905Q39.7881,24.477916,39.7472,24.416645Q39.7063,24.355373,39.6595,24.29841Q39.6128,24.24145,39.5607,24.18934Q39.5086,24.13723,39.4516,24.09048Q39.3946,24.04374,39.3334,24.0028Q39.2721,23.96186,39.2071,23.92712Q39.1421,23.89238,39.074,23.86418Q39.0059,23.83598,38.9354,23.81459Q38.8649,23.7932,38.7926,23.77882Q38.7204,23.76445,38.647,23.75722Q38.5737,23.75,38.5,23.75L24.5,23.75Q24.4263097,23.75,24.352974,23.75722Q24.279639,23.76445,24.207365,23.77882Q24.13509,23.7932,24.064573,23.81459Q23.994056,23.83598,23.925975,23.86418Q23.857894,23.89238,23.792905,23.92712Q23.727916,23.96186,23.666645,24.0028Q23.605373,24.04374,23.54841,24.09048Q23.49145,24.13723,23.43934,24.18934Q23.38723,24.24145,23.34048,24.29841Q23.29374,24.355373,23.2528,24.416645Q23.21186,24.477916,23.17712,24.542905Q23.14238,24.607894,23.11418,24.675975Q23.08598,24.744056,23.06459,24.814573Q23.0432,24.88509,23.02882,24.957365Q23.01445,25.029639,23.00722,25.102974Q23,25.1763097,23,25.25Q23,25.3236903,23.00722,25.397026Q23.01445,25.470361,23.02882,25.542635Q23.0432,25.61491,23.06459,25.685427Q23.08598,25.755944,23.11418,25.824025Q23.14238,25.892106,23.17712,25.957095Q23.21186,26.022084,23.2528,26.083355Q23.29374,26.144627,23.34048,26.20159Q23.38723,26.25855,23.43934,26.31066Q23.49145,26.36277,23.54841,26.40952Q23.605373,26.45626,23.666645,26.4972Q23.727916,26.53814,23.792905,26.57288Q23.857894,26.60762,23.925975,26.63582Q23.994056,26.66402,24.064573,26.68541Q24.13509,26.7068,24.207365,26.72118Q24.279639,26.73555,24.352974,26.74278Q24.4263097,26.75,24.5,26.75Z" fill-rule="evenodd" fill="#FFFFFF" fill-opacity="1"/></g><g><path d="M21.39881,29.31805201171875L28.39881,43.838887011718754Q28.46296,43.97198701171875,28.55184,44.08998701171875Q28.640729999999998,44.20798701171875,28.75093,44.30638701171875Q28.86112,44.40478701171875,28.9884,44.47978701171875Q29.11568,44.55478701171875,29.25515,44.60358701171875Q29.495449999999998,44.68748701171875,29.75,44.68748701171875L29.76017,44.68748701171875Q30.0975,44.68518701171875,30.40136,44.53868701171875Q30.49624,44.49298701171875,30.58379,44.43438701171875Q30.67134,44.375887011718746,30.749850000000002,44.305687011718746Q30.82836,44.235487011718746,30.8963,44.15498701171875Q30.96423,44.07448701171875,31.02024,43.98528701171875Q31.076259999999998,43.89608701171875,31.11926,43.79998701171875Q31.16227,43.70388701171875,31.19142,43.602587011718754Q31.22056,43.50138701171875,31.23528,43.39708701171875Q31.25,43.29288701171875,31.25,43.18748701171875Q31.25,43.17078701171875,31.24963,43.15398701171875Q31.242359999999998,42.82898701171875,31.101190000000003,42.53618701171875L31.100659999999998,42.53508701171875L24.10119,28.01532201171875Q24.05546,27.92044801171875,23.99691,27.83289701171875Q23.93837,27.74534501171875,23.86816,27.66683301171875Q23.79796,27.58831701171875,23.717472,27.52038701171875Q23.636985,27.45245701171875,23.547795,27.39643701171875Q23.458605,27.34042701171875,23.362462,27.29741701171875Q23.266319,27.25441701171875,23.16511,27.22526701171875Q23.063901,27.19612701171875,22.959612,27.18140701171875Q22.855323,27.16668701171875,22.750000544751,27.16668701171875Q22.7332403,27.16668701171875,22.7164847,27.16705701171875Q22.391475,27.17432701171875,22.098635,27.31549701171875Q22.003761,27.36122701171875,21.91621,27.41977701171875Q21.828658,27.47831701171875,21.750146,27.54852701171875Q21.67163,27.61872701171875,21.6037,27.69921501171875Q21.53577,27.77970201171875,21.47975,27.86889201171875Q21.42374,27.95808301171875,21.38073,28.05422501171875Q21.33773,28.15036801171875,21.30858,28.25157701171875Q21.27944,28.35278701171875,21.26472,28.45707601171875Q21.25,28.56136501171875,21.25,28.66668701171875Q21.25,28.68344651171875,21.25037,28.70020231171875Q21.25764,29.02521201171875,21.39881,29.31805201171875Z" fill-rule="evenodd" fill="#FFFFFF" fill-opacity="1"/></g></g><g><path d="M105.372,42.964Q103.86,45.52,101.322,46.96Q98.78399999999999,48.4,95.58,48.4Q91.836,48.4,88.956,46.564Q86.076,44.728,84.492,41.434Q82.908,38.14,82.908,33.856Q82.908,29.644,84.51,26.386Q86.112,23.128,89.01,21.346Q91.908,19.564,95.688,19.564Q98.892,19.564,101.394,21.022Q103.896,22.48,105.336,25L101.916,26.98Q100.944,25.323999999999998,99.19800000000001,24.369999999999997Q97.452,23.416,95.544,23.416Q93.06,23.416,91.152,24.73Q89.244,26.044,88.182,28.402Q87.12,30.76,87.12,33.856Q87.12,36.988,88.182,39.436Q89.244,41.884,91.152,43.234Q93.06,44.584,95.544,44.584Q97.416,44.584,99.108,43.612Q100.8,42.64,101.952,40.948L105.372,42.964ZM114.084,47.896L106.344,28.096L110.736,28.096L116.244,43.108L116.46000000000001,43.108L121.68,28.096L126.072,28.096L114.98400000000001,56.68L110.7,56.68L114.084,47.896ZM128.736,47.896L128.736,20.067999999999998L132.66,20.067999999999998L132.66,30.76L132.84,30.76Q133.88400000000001,29.284,135.43200000000002,28.456Q136.98,27.628,138.744,27.628Q141.156,27.628,143.028,28.888Q144.9,30.148,145.94400000000002,32.434Q146.988,34.72,146.988,37.672Q146.988,40.804,145.94400000000002,43.252Q144.9,45.7,143.028,47.05Q141.156,48.4,138.744,48.4Q136.872,48.4,135.36,47.572Q133.848,46.744,132.84,45.232L132.66,45.232L132.66,47.896L128.736,47.896ZM132.516,37.995999999999995Q132.516,40.948,133.938,42.784Q135.36,44.62,137.59199999999998,44.62Q139.96800000000002,44.62,141.462,42.784Q142.95600000000002,40.948,142.95600000000002,37.995999999999995Q142.95600000000002,36.088,142.29,34.576Q141.624,33.064,140.436,32.218Q139.248,31.372,137.736,31.372Q136.224,31.372,135.036,32.218Q133.848,33.064,133.18200000000002,34.576Q132.516,36.088,132.516,37.995999999999995ZM167.868,36.412Q167.868,38.104,167.57999999999998,39.292L154.07999999999998,39.292Q154.368,41.956,155.79000000000002,43.468Q157.212,44.98,159.624,44.98Q161.02800000000002,44.98,162.252,44.242Q163.476,43.504,164.304,42.136L167.47199999999998,43.9Q166.284,46.06,164.304,47.23Q162.324,48.4,159.624,48.4Q156.672,48.4,154.512,47.14Q152.352,45.88,151.18200000000002,43.558Q150.012,41.236000000000004,150.012,38.104Q150.012,34.9,151.128,32.524Q152.244,30.148,154.332,28.87Q156.42000000000002,27.592,159.228,27.592Q163.224,27.592,165.546,29.968Q167.868,32.344,167.868,36.412ZM163.872,35.908Q163.872,33.676,162.612,32.344Q161.352,31.012,159.228,31.012Q157.248,31.012,155.952,32.29Q154.656,33.568,154.224,35.908L163.872,35.908ZM171.936,47.896L171.864,28.096L175.89600000000002,28.096L175.89600000000002,31.804L176.076,31.804Q177.228,29.788,179.1,28.69Q180.97199999999998,27.592,183.42000000000002,27.592L183.636,27.592L183.636,31.66L183.312,31.66Q179.784,31.66,177.84,33.172Q175.89600000000002,34.684,175.89600000000002,37.096000000000004L175.89600000000002,47.896L171.936,47.896ZM198.756,23.416Q196.2,23.416,194.274,24.712Q192.348,26.008,191.304,28.402Q190.26,30.796,190.26,34Q190.26,37.239999999999995,191.268,39.634Q192.276,42.028,194.148,43.306Q196.01999999999998,44.584,198.54000000000002,44.584Q200.48399999999998,44.584,201.978,43.828Q203.47199999999998,43.072,204.768,41.632000000000005L204.768,36.556L198.39600000000002,36.556L198.39600000000002,32.739999999999995L208.764,32.739999999999995L208.764,43.108Q206.784,45.7,204.20999999999998,47.05Q201.636,48.4,198.54000000000002,48.4Q194.76,48.4,191.952,46.636Q189.144,44.872,187.614,41.614000000000004Q186.084,38.356,186.084,34Q186.084,29.608,187.632,26.35Q189.18,23.092,192.042,21.328Q194.904,19.564,198.756,19.564Q201.924,19.564,204.426,20.986Q206.928,22.408,208.44,24.892L205.2,27.16Q204.084,25.468,202.338,24.442Q200.59199999999998,23.416,198.756,23.416ZM230.508,36.412Q230.508,38.104,230.22,39.292L216.72,39.292Q217.008,41.956,218.43,43.468Q219.852,44.98,222.264,44.98Q223.668,44.98,224.892,44.242Q226.116,43.504,226.944,42.136L230.112,43.9Q228.924,46.06,226.944,47.23Q224.964,48.4,222.264,48.4Q219.312,48.4,217.152,47.14Q214.992,45.88,213.822,43.558Q212.652,41.236000000000004,212.652,38.104Q212.652,34.9,213.768,32.524Q214.884,30.148,216.972,28.87Q219.06,27.592,221.868,27.592Q225.864,27.592,228.186,29.968Q230.508,32.344,230.508,36.412ZM226.512,35.908Q226.512,33.676,225.252,32.344Q223.992,31.012,221.868,31.012Q219.888,31.012,218.592,32.29Q217.296,33.568,216.864,35.908L226.512,35.908ZM239.796,48.4Q236.952,48.4,235.26,46.888Q233.568,45.376,233.568,42.82Q233.568,39.616,236.088,37.942Q238.608,36.268,243.252,36.268L245.772,36.268L245.772,35.007999999999996Q245.772,33.172,244.674,32.11Q243.576,31.048,241.74,31.048Q239.364,31.048,237.132,33.172L234.684,30.868Q237.744,27.592,242.064,27.592Q245.556,27.592,247.626,29.536Q249.696,31.48,249.696,34.72L249.696,47.896L245.772,47.896L245.772,45.268L245.556,45.268Q244.8,46.708,243.216,47.554Q241.632,48.4,239.796,48.4ZM240.732,44.98Q241.884,44.98,243.054,44.512Q244.224,44.044,244.998,43.054Q245.772,42.064,245.772,40.623999999999995L245.772,39.688L243.864,39.688Q240.66,39.688,239.13,40.39Q237.6,41.092,237.6,42.568Q237.6,43.648,238.446,44.314Q239.292,44.98,240.732,44.98ZM254.448,47.896L254.376,28.096L258.408,28.096L258.408,31.804L258.58799999999997,31.804Q259.74,29.788,261.61199999999997,28.69Q263.48400000000004,27.592,265.932,27.592L266.148,27.592L266.148,31.66L265.824,31.66Q262.296,31.66,260.352,33.172Q258.408,34.684,258.408,37.096000000000004L258.408,47.896L254.448,47.896ZM291.06,47.896L285.804,47.896L275.18399999999997,35.116L273.456,36.844L273.456,47.896L269.38800000000003,47.896L269.38800000000003,20.067999999999998L273.456,20.067999999999998L273.456,31.624L284.616,20.067999999999998L290.23199999999997,20.067999999999998L278.06399999999996,32.236000000000004L291.06,47.896ZM298.98,21.58Q298.98,22.732,298.278,23.416Q297.576,24.1,296.424,24.1Q295.308,24.1,294.642,23.416Q293.976,22.732,293.976,21.58Q293.976,20.428,294.642,19.744Q295.308,19.060000000000002,296.424,19.060000000000002Q297.576,19.060000000000002,298.278,19.744Q298.98,20.428,298.98,21.58ZM298.44,28.096L298.44,47.896L294.51599999999996,47.896L294.51599999999996,28.096L298.44,28.096ZM314.496,31.804L308.988,31.804L308.988,41.848Q308.988,43.288,309.762,44.08Q310.536,44.872,311.94,44.872Q312.948,44.872,314.06399999999996,44.476L314.06399999999996,48.148Q312.696,48.616,311.076,48.616Q308.15999999999997,48.616,306.61199999999997,46.978Q305.06399999999996,45.34,305.06399999999996,42.28L305.06399999999996,31.804L301.96799999999996,31.804L301.96799999999996,28.096L305.06399999999996,28.096L305.06399999999996,22.048000000000002L308.988,22.048000000000002L308.988,28.096L314.496,28.096L314.496,31.804Z" fill="#3D3D3D" fill-opacity="1"/></g></g></g></svg>