<svg xmlns="http://www.w3.org/2000/svg" xmlns:xlink="http://www.w3.org/1999/xlink" fill="none" version="1.1" width="340" height="71" viewBox="0 0 340 71"><defs><clipPath id="master_svg0_1_2016"><rect x="0" y="0" width="340" height="71" rx="0"/></clipPath><clipPath id="master_svg1_1_58"><rect x="12" y="14" width="42" height="41" rx="0"/></clipPath></defs><g clip-path="url(#master_svg0_1_2016)"><rect x="0" y="0" width="340" height="71" rx="0" fill="#FFFFFF" fill-opacity="1"/><g><g><path d="M69.5856111328125,19.6651681640625C69.5815111328125,18.9462681640625,69.5737111328125,18.2276681640625,69.5543111328125,17.5078681640625C69.5134111328125,15.942168164062501,69.4229111328125,14.3622681640625,69.1508111328125,12.8132681640625C68.8747111328125,11.2401681640625,68.4234111328125,9.7774881640625,67.7121111328125,8.3484981640625C67.0139111328125,6.9451581640625,66.1011111328125,5.6609681640625,65.0123111328125,4.5473481640625C63.9237111328125,3.4337181640625,62.6681111328125,2.5002781640625,61.2954111328125,1.7857881640625C59.8994111328125,1.0591381640625,58.4691111328125,0.5976551640625,56.9325111328125,0.3152771640625C55.4172111328125,0.03614816406249999,53.8724111328125,-0.055811135937500006,52.3404111328125,-0.09817993593749999C51.6370111328125,-0.1176792359375,50.9343111328125,-0.1258640859375,50.2311111328125,-0.1303176259375C49.3965111328125,-0.1351318359375,48.5613111328125,-0.1351318359375,47.7269111328125,-0.1351318359375L29.2250111328125,-0.1351318359375L21.5600111328125,-0.1351318359375C20.7248111328125,-0.1351318359375,19.8906111328125,-0.1351318359375,19.0562111328125,-0.1301968359375C18.3528111328125,-0.1257432859375,17.6492111328125,-0.1175584359375,16.9469111328125,-0.0980591359375C16.5640111328125,-0.08746693593749999,16.1802111328125,-0.0737452359375,15.796211132812498,-0.0548477359375C14.6443111328125,0.0019651640624999966,13.4906111328125,0.10608116406250001,12.3547111328125,0.3153981640625C11.2022111328125,0.5272421640625,10.1094111328125,0.8397121640625,9.0462511328125,1.2892781640625C8.6919011328125,1.4390181640625,8.3407211328125,1.6041581640625,7.991671132812501,1.7857881640625C6.9621611328125,2.3216581640625,5.9983211328125,2.9806581640625,5.1216911328125,3.7464281640625C4.8294811328125,4.0017281640625,4.5469111328125,4.2688181640625,4.2748311328125,4.5472281640625C3.1857711328125,5.6608481640625,2.2730111328125,6.9450381640625,1.5747811328125,8.3483781640625C0.8634911328124999,9.7773681640625,0.4127601328125,11.2400681640625,0.13643513281250003,12.8130681640625C-0.1354168671875,14.3620681640625,-0.2257989671875,15.942068164062501,-0.2669887671875,17.5077681640625C-0.2862890671875,18.2275681640625,-0.2944093571875,18.9461681640625,-0.2989990771875,19.6650681640625C-0.3042949771875,20.5189681640625,-0.3035888671875,21.3729681640625,-0.3035888671875,22.2265681640625L-0.3035888671875,33.8802681640625L-0.3035888671875,48.9892681640625C-0.3035888671875,49.8436681640625,-0.3044126621875,50.6968681640625,-0.2989991571875,51.5513681640625C-0.2944094371875,52.2702681640625,-0.28628916718749997,52.9888681640625,-0.2669888671875,53.7074681640625C-0.22579906718749998,55.2740681640625,-0.1355348671875,56.8542681640625,0.13643513281250003,58.4025681640625C0.4127591328125,59.9751681640625,0.8634911328124999,61.4391681640625,1.5747811328125,62.8677681640625C2.2730111328125,64.2714681640625,3.1857711328125,65.5553681640625,4.2748311328125,66.6684681640625C5.3630611328125,67.7825681640625,6.6190011328125,68.7158681640625,7.9917911328125,69.4308681640625C9.3878911328125,70.1576681640625,10.8181111328125,70.6184681640625,12.3551111328125,70.9008681640625C13.8694111328125,71.1796681640625,15.4153111328125,71.2723681640625,16.9470111328125,71.3142681640625C17.6494111328125,71.3333681640625,18.3529111328125,71.3418681640625,19.0563111328125,71.3459681640625C19.8907111328125,71.3521681640625,20.7249111328125,71.3512681640625,21.5602111328125,71.3512681640625L47.7269111328125,71.3512681640625C48.5613111328125,71.3512681640625,49.3965111328125,71.3521681640625,50.2310111328125,71.3459681640625C50.9342111328125,71.3419681640625,51.6369111328125,71.3333681640625,52.3403111328125,71.3142681640625C53.8723111328125,71.2723681640625,55.4171111328125,71.1795681640625,56.9324111328125,70.9008681640625C58.4690111328125,70.6184681640625,59.8993111328125,70.1574681640625,61.2953111328125,69.4308681640625C62.6680111328125,68.7160681640625,63.923611132812496,67.7825681640625,65.0122111328125,66.6684681640625C66.1010111328125,65.5551681640625,67.0139111328125,64.2714681640625,67.7120111328125,62.8677681640625C68.4232111328125,61.4391681640625,68.8746111328125,59.9752681640625,69.1507111328125,58.4025681640625C69.4227111328125,56.8542681640625,69.5133111328125,55.2740681640625,69.5542111328125,53.7074681640625C69.5735111328125,52.9888681640625,69.5813111328125,52.2703681640625,69.5855111328125,51.5513681640625C69.5909111328125,50.6968681640625,69.5905111328125,49.8436681640625,69.5905111328125,48.9892681640625L69.5905111328125,22.2265681640625C69.5906111328125,21.3729681640625,69.5909111328125,20.5189681640625,69.5856111328125,19.6651681640625Z" fill="#F05138" fill-opacity="1"/></g></g><g clip-path="url(#master_svg1_1_58)"><g><path d="M14.875,43.89583L14.875,49.875Q14.875,49.94869,14.88222,50.02203Q14.88945,50.09536,14.90382,50.16763Q14.9182,50.23991,14.939589999999999,50.31043Q14.96098,50.38094,14.98918,50.449020000000004Q15.01738,50.51711,15.05212,50.58209Q15.08686,50.64708,15.1278,50.708349999999996Q15.16874,50.76963,15.21548,50.826589999999996Q15.26223,50.88355,15.31434,50.93566Q15.36645,50.98777,15.42341,51.03452Q15.480373,51.08126,15.541645,51.1222Q15.602916,51.16314,15.667905,51.19788Q15.732894,51.23262,15.800975,51.26082Q15.869056,51.28902,15.939573,51.31041Q16.01009,51.3318,16.082365,51.346180000000004Q16.154639,51.36055,16.227974,51.367779999999996Q16.3013097,51.375,16.375,51.375L49.625,51.375Q49.6987,51.375,49.772,51.367779999999996Q49.8454,51.36055,49.9176,51.346180000000004Q49.9899,51.3318,50.0604,51.31041Q50.1309,51.28902,50.199,51.26082Q50.2671,51.23262,50.3321,51.19788Q50.3971,51.16314,50.4584,51.1222Q50.5196,51.08126,50.5766,51.03452Q50.6336,50.98777,50.6857,50.93566Q50.7378,50.88355,50.7845,50.826589999999996Q50.8313,50.76963,50.8722,50.708349999999996Q50.9131,50.64708,50.9479,50.58209Q50.9826,50.51711,51.0108,50.449020000000004Q51.039,50.38094,51.0604,50.31043Q51.0818,50.23991,51.0962,50.16763Q51.1106,50.09536,51.1178,50.02203Q51.125,49.94869,51.125,49.875L51.125,43.89583Q51.125,42.556267,50.1603,41.614488Q49.2107,40.6875,47.875,40.6875L18.125,40.6875Q16.789366,40.6875,15.839763,41.614483Q14.875,42.556266,14.875,43.89583ZM17.875,48.375L48.125,48.375L48.125,43.89583Q48.125,43.6875,47.875,43.6875L18.125,43.6875Q17.875,43.6875,17.875,43.89583L17.875,48.375Z" fill-rule="evenodd" fill="#FFFFFF" fill-opacity="1"/></g><g><path d="M42.36076,20.625L48.75,20.625Q48.8237,20.625,48.897,20.61778Q48.9704,20.61055,49.0426,20.59618Q49.1149,20.5818,49.1854,20.56041Q49.2559,20.53902,49.324,20.51082Q49.3921,20.48262,49.4571,20.44788Q49.5221,20.41314,49.5834,20.3722Q49.6446,20.33126,49.7016,20.28452Q49.7586,20.23777,49.8107,20.18566Q49.8628,20.13355,49.9095,20.07659Q49.9563,20.019627,49.9972,19.958355Q50.0381,19.897084,50.072900000000004,19.832095Q50.1076,19.767106,50.1358,19.699025Q50.164,19.630944,50.1854,19.560427Q50.2068,19.48991,50.221199999999996,19.417635Q50.2356,19.345361,50.2428,19.272026Q50.25,19.1986903,50.25,19.125Q50.25,19.0513097,50.2428,18.977974Q50.2356,18.904639,50.221199999999996,18.832365Q50.2068,18.76009,50.1854,18.689573Q50.164,18.619056,50.1358,18.550975Q50.1076,18.482894,50.072900000000004,18.417905Q50.0381,18.352916,49.9972,18.291645Q49.9563,18.230373,49.9095,18.17341Q49.8628,18.11645,49.8107,18.06434Q49.7586,18.01223,49.7016,17.96548Q49.6446,17.91874,49.5834,17.8778Q49.5221,17.83686,49.4571,17.80212Q49.3921,17.76738,49.324,17.73918Q49.2559,17.71098,49.1854,17.68959Q49.1149,17.6682,49.0426,17.65382Q48.9704,17.63945,48.897,17.63222Q48.8237,17.625,48.75,17.625L41.75,17.625Q41.60454,17.625,41.4618,17.65295Q41.31905,17.68089,41.18433,17.73575Q41.04962,17.7906,40.92795,17.87032Q40.80628,17.950029999999998,40.7022,18.05164L35.45219,23.17664Q35.39946,23.22811,35.35203,23.28451Q35.3046,23.34091,35.26293,23.40168Q35.22125,23.46245,35.18573,23.52702Q35.15022,23.59158,35.1212,23.65932Q35.09218,23.72706,35.06994,23.79731Q35.0477,23.86757,35.03245,23.93966Q35.01721,24.01176,35.009100000000004,24.085Q35.001,24.15824,35.00011,24.23193Q34.99922,24.30561,35.00556,24.37903Q35.0119,24.45245,35.0254,24.52489Q35.03891,24.59733,35.05945,24.6681Q35.07999,24.73887,35.10737,24.807290000000002Q35.13474,24.875700000000002,35.1687,24.941110000000002Q35.20265,25.00651,35.24285,25.06827Q35.28305,25.130029999999998,35.3291,25.18755Q35.37516,25.24507,35.42664,25.2978Q35.43926,25.31074,35.45219,25.32336L40.7022,30.4484Q40.80628,30.55,40.92795,30.6297Q41.04962,30.709400000000002,41.18433,30.7643Q41.31905,30.8191,41.4618,30.847099999999998Q41.60454,30.875,41.75,30.875L48.75,30.875Q48.8237,30.875,48.897,30.867800000000003Q48.9704,30.860599999999998,49.0426,30.8462Q49.1149,30.8318,49.1854,30.8104Q49.2559,30.789,49.324,30.7608Q49.3921,30.732599999999998,49.4571,30.6979Q49.5221,30.6631,49.5834,30.6222Q49.6446,30.5813,49.7016,30.5345Q49.7586,30.4878,49.8107,30.4357Q49.8628,30.3836,49.9095,30.3266Q49.9563,30.2696,49.9972,30.208399999999997Q50.0381,30.147100000000002,50.072900000000004,30.0821Q50.1076,30.0171,50.1358,29.948999999999998Q50.164,29.8809,50.1854,29.8104Q50.2068,29.7399,50.221199999999996,29.6676Q50.2356,29.595399999999998,50.2428,29.522Q50.25,29.448700000000002,50.25,29.375Q50.25,29.301299999999998,50.2428,29.228Q50.2356,29.154600000000002,50.221199999999996,29.08236Q50.2068,29.010089999999998,50.1854,28.93957Q50.164,28.86905,50.1358,28.80097Q50.1076,28.732889999999998,50.072900000000004,28.6679Q50.0381,28.60291,49.9972,28.54164Q49.9563,28.48037,49.9095,28.42341Q49.8628,28.36645,49.8107,28.31434Q49.7586,28.262230000000002,49.7016,28.21548Q49.6446,28.16873,49.5834,28.127789999999997Q49.5221,28.08685,49.4571,28.052120000000002Q49.3921,28.01738,49.324,27.989179999999998Q49.2559,27.96098,49.1854,27.939590000000003Q49.1149,27.9182,49.0426,27.90382Q48.9704,27.88945,48.897,27.88222Q48.8237,27.875,48.75,27.875L42.36076,27.875L38.64735,24.25L42.36076,20.625Z" fill-rule="evenodd" fill="#FFFFFF" fill-opacity="1"/></g><g><ellipse cx="19" cy="24.250010013580322" rx="3.5" ry="3.4166665077209473" fill-opacity="0" stroke-opacity="1" stroke="#FFFFFF" fill="none" stroke-width="3"/></g><g><path d="M22.5,25.75L36.5,25.75Q36.5737,25.75,36.647,25.74278Q36.7204,25.73555,36.7926,25.72118Q36.8649,25.7068,36.9354,25.68541Q37.0059,25.66402,37.074,25.63582Q37.1421,25.60762,37.2071,25.57288Q37.2721,25.53814,37.3334,25.4972Q37.3946,25.45626,37.4516,25.40952Q37.5086,25.36277,37.5607,25.31066Q37.6128,25.25855,37.6595,25.20159Q37.7063,25.144627,37.7472,25.083355Q37.7881,25.022084,37.822900000000004,24.957095Q37.8576,24.892106,37.8858,24.824025Q37.914,24.755944,37.9354,24.685427Q37.9568,24.61491,37.971199999999996,24.542635Q37.9856,24.470361,37.9928,24.397026Q38,24.3236903,38,24.25Q38,24.1763097,37.9928,24.102974Q37.9856,24.029639,37.971199999999996,23.957365Q37.9568,23.88509,37.9354,23.814573Q37.914,23.744056,37.8858,23.675975Q37.8576,23.607894,37.822900000000004,23.542905Q37.7881,23.477916,37.7472,23.416645Q37.7063,23.355373,37.6595,23.29841Q37.6128,23.24145,37.5607,23.18934Q37.5086,23.13723,37.4516,23.09048Q37.3946,23.04374,37.3334,23.0028Q37.2721,22.96186,37.2071,22.92712Q37.1421,22.89238,37.074,22.86418Q37.0059,22.83598,36.9354,22.81459Q36.8649,22.7932,36.7926,22.77882Q36.7204,22.76445,36.647,22.75722Q36.5737,22.75,36.5,22.75L22.5,22.75Q22.4263097,22.75,22.352974,22.75722Q22.279639,22.76445,22.207365,22.77882Q22.13509,22.7932,22.064573,22.81459Q21.994056,22.83598,21.925975,22.86418Q21.857894,22.89238,21.792905,22.92712Q21.727916,22.96186,21.666645,23.0028Q21.605373,23.04374,21.54841,23.09048Q21.49145,23.13723,21.43934,23.18934Q21.38723,23.24145,21.34048,23.29841Q21.29374,23.355373,21.2528,23.416645Q21.21186,23.477916,21.17712,23.542905Q21.14238,23.607894,21.11418,23.675975Q21.08598,23.744056,21.06459,23.814573Q21.0432,23.88509,21.02882,23.957365Q21.01445,24.029639,21.00722,24.102974Q21,24.1763097,21,24.25Q21,24.3236903,21.00722,24.397026Q21.01445,24.470361,21.02882,24.542635Q21.0432,24.61491,21.06459,24.685427Q21.08598,24.755944,21.11418,24.824025Q21.14238,24.892106,21.17712,24.957095Q21.21186,25.022084,21.2528,25.083355Q21.29374,25.144627,21.34048,25.20159Q21.38723,25.25855,21.43934,25.31066Q21.49145,25.36277,21.54841,25.40952Q21.605373,25.45626,21.666645,25.4972Q21.727916,25.53814,21.792905,25.57288Q21.857894,25.60762,21.925975,25.63582Q21.994056,25.66402,22.064573,25.68541Q22.13509,25.7068,22.207365,25.72118Q22.279639,25.73555,22.352974,25.74278Q22.4263097,25.75,22.5,25.75Z" fill-rule="evenodd" fill="#FFFFFF" fill-opacity="1"/></g><g><path d="M19.39881,28.31805201171875L26.39881,42.838887011718754Q26.46296,42.97198701171875,26.55184,43.08998701171875Q26.640729999999998,43.20798701171875,26.75093,43.30638701171875Q26.86112,43.40478701171875,26.9884,43.47978701171875Q27.11568,43.55478701171875,27.25515,43.60358701171875Q27.495449999999998,43.68748701171875,27.75,43.68748701171875L27.76017,43.68748701171875Q28.0975,43.68518701171875,28.40136,43.53868701171875Q28.49624,43.49298701171875,28.58379,43.43438701171875Q28.67134,43.375887011718746,28.749850000000002,43.305687011718746Q28.82836,43.235487011718746,28.8963,43.15498701171875Q28.96423,43.07448701171875,29.02024,42.98528701171875Q29.076259999999998,42.89608701171875,29.11926,42.79998701171875Q29.16227,42.70388701171875,29.19142,42.602587011718754Q29.22056,42.50138701171875,29.23528,42.39708701171875Q29.25,42.29288701171875,29.25,42.18748701171875Q29.25,42.17078701171875,29.24963,42.15398701171875Q29.242359999999998,41.82898701171875,29.101190000000003,41.53618701171875L29.100659999999998,41.53508701171875L22.10119,27.01532201171875Q22.05546,26.92044801171875,21.99691,26.83289701171875Q21.93837,26.74534501171875,21.86816,26.66683301171875Q21.79796,26.58831701171875,21.717472,26.52038701171875Q21.636985,26.45245701171875,21.547795,26.39643701171875Q21.458605,26.34042701171875,21.362462,26.29741701171875Q21.266319,26.25441701171875,21.16511,26.22526701171875Q21.063901,26.19612701171875,20.959612,26.18140701171875Q20.855323,26.16668701171875,20.750000544751,26.16668701171875Q20.7332403,26.16668701171875,20.7164847,26.16705701171875Q20.391475,26.17432701171875,20.098635,26.31549701171875Q20.003761,26.36122701171875,19.91621,26.41977701171875Q19.828658,26.47831701171875,19.750146,26.54852701171875Q19.67163,26.61872701171875,19.6037,26.69921501171875Q19.53577,26.77970201171875,19.47975,26.86889201171875Q19.42374,26.95808301171875,19.38073,27.05422501171875Q19.33773,27.15036801171875,19.30858,27.25157701171875Q19.27944,27.35278701171875,19.26472,27.45707601171875Q19.25,27.56136501171875,19.25,27.66668701171875Q19.25,27.68344651171875,19.25037,27.70020231171875Q19.25764,28.02521201171875,19.39881,28.31805201171875Z" fill-rule="evenodd" fill="#FFFFFF" fill-opacity="1"/></g></g><g><path d="M105.372,42.964Q103.86,45.52,101.322,46.96Q98.78399999999999,48.4,95.58,48.4Q91.836,48.4,88.956,46.564Q86.076,44.728,84.492,41.434Q82.908,38.14,82.908,33.856Q82.908,29.644,84.51,26.386Q86.112,23.128,89.01,21.346Q91.908,19.564,95.688,19.564Q98.892,19.564,101.394,21.022Q103.896,22.48,105.336,25L101.916,26.98Q100.944,25.323999999999998,99.19800000000001,24.369999999999997Q97.452,23.416,95.544,23.416Q93.06,23.416,91.152,24.73Q89.244,26.044,88.182,28.402Q87.12,30.76,87.12,33.856Q87.12,36.988,88.182,39.436Q89.244,41.884,91.152,43.234Q93.06,44.584,95.544,44.584Q97.416,44.584,99.108,43.612Q100.8,42.64,101.952,40.948L105.372,42.964ZM114.084,47.896L106.344,28.096L110.736,28.096L116.244,43.108L116.46000000000001,43.108L121.68,28.096L126.072,28.096L114.98400000000001,56.68L110.7,56.68L114.084,47.896ZM128.736,47.896L128.736,20.067999999999998L132.66,20.067999999999998L132.66,30.76L132.84,30.76Q133.88400000000001,29.284,135.43200000000002,28.456Q136.98,27.628,138.744,27.628Q141.156,27.628,143.028,28.888Q144.9,30.148,145.94400000000002,32.434Q146.988,34.72,146.988,37.672Q146.988,40.804,145.94400000000002,43.252Q144.9,45.7,143.028,47.05Q141.156,48.4,138.744,48.4Q136.872,48.4,135.36,47.572Q133.848,46.744,132.84,45.232L132.66,45.232L132.66,47.896L128.736,47.896ZM132.516,37.995999999999995Q132.516,40.948,133.938,42.784Q135.36,44.62,137.59199999999998,44.62Q139.96800000000002,44.62,141.462,42.784Q142.95600000000002,40.948,142.95600000000002,37.995999999999995Q142.95600000000002,36.088,142.29,34.576Q141.624,33.064,140.436,32.218Q139.248,31.372,137.736,31.372Q136.224,31.372,135.036,32.218Q133.848,33.064,133.18200000000002,34.576Q132.516,36.088,132.516,37.995999999999995ZM167.868,36.412Q167.868,38.104,167.57999999999998,39.292L154.07999999999998,39.292Q154.368,41.956,155.79000000000002,43.468Q157.212,44.98,159.624,44.98Q161.02800000000002,44.98,162.252,44.242Q163.476,43.504,164.304,42.136L167.47199999999998,43.9Q166.284,46.06,164.304,47.23Q162.324,48.4,159.624,48.4Q156.672,48.4,154.512,47.14Q152.352,45.88,151.18200000000002,43.558Q150.012,41.236000000000004,150.012,38.104Q150.012,34.9,151.128,32.524Q152.244,30.148,154.332,28.87Q156.42000000000002,27.592,159.228,27.592Q163.224,27.592,165.546,29.968Q167.868,32.344,167.868,36.412ZM163.872,35.908Q163.872,33.676,162.612,32.344Q161.352,31.012,159.228,31.012Q157.248,31.012,155.952,32.29Q154.656,33.568,154.224,35.908L163.872,35.908ZM171.936,47.896L171.864,28.096L175.89600000000002,28.096L175.89600000000002,31.804L176.076,31.804Q177.228,29.788,179.1,28.69Q180.97199999999998,27.592,183.42000000000002,27.592L183.636,27.592L183.636,31.66L183.312,31.66Q179.784,31.66,177.84,33.172Q175.89600000000002,34.684,175.89600000000002,37.096000000000004L175.89600000000002,47.896L171.936,47.896ZM198.756,23.416Q196.2,23.416,194.274,24.712Q192.348,26.008,191.304,28.402Q190.26,30.796,190.26,34Q190.26,37.239999999999995,191.268,39.634Q192.276,42.028,194.148,43.306Q196.01999999999998,44.584,198.54000000000002,44.584Q200.48399999999998,44.584,201.978,43.828Q203.47199999999998,43.072,204.768,41.632000000000005L204.768,36.556L198.39600000000002,36.556L198.39600000000002,32.739999999999995L208.764,32.739999999999995L208.764,43.108Q206.784,45.7,204.20999999999998,47.05Q201.636,48.4,198.54000000000002,48.4Q194.76,48.4,191.952,46.636Q189.144,44.872,187.614,41.614000000000004Q186.084,38.356,186.084,34Q186.084,29.608,187.632,26.35Q189.18,23.092,192.042,21.328Q194.904,19.564,198.756,19.564Q201.924,19.564,204.426,20.986Q206.928,22.408,208.44,24.892L205.2,27.16Q204.084,25.468,202.338,24.442Q200.59199999999998,23.416,198.756,23.416ZM230.508,36.412Q230.508,38.104,230.22,39.292L216.72,39.292Q217.008,41.956,218.43,43.468Q219.852,44.98,222.264,44.98Q223.668,44.98,224.892,44.242Q226.116,43.504,226.944,42.136L230.112,43.9Q228.924,46.06,226.944,47.23Q224.964,48.4,222.264,48.4Q219.312,48.4,217.152,47.14Q214.992,45.88,213.822,43.558Q212.652,41.236000000000004,212.652,38.104Q212.652,34.9,213.768,32.524Q214.884,30.148,216.972,28.87Q219.06,27.592,221.868,27.592Q225.864,27.592,228.186,29.968Q230.508,32.344,230.508,36.412ZM226.512,35.908Q226.512,33.676,225.252,32.344Q223.992,31.012,221.868,31.012Q219.888,31.012,218.592,32.29Q217.296,33.568,216.864,35.908L226.512,35.908ZM239.796,48.4Q236.952,48.4,235.26,46.888Q233.568,45.376,233.568,42.82Q233.568,39.616,236.088,37.942Q238.608,36.268,243.252,36.268L245.772,36.268L245.772,35.007999999999996Q245.772,33.172,244.674,32.11Q243.576,31.048,241.74,31.048Q239.364,31.048,237.132,33.172L234.684,30.868Q237.744,27.592,242.064,27.592Q245.556,27.592,247.626,29.536Q249.696,31.48,249.696,34.72L249.696,47.896L245.772,47.896L245.772,45.268L245.556,45.268Q244.8,46.708,243.216,47.554Q241.632,48.4,239.796,48.4ZM240.732,44.98Q241.884,44.98,243.054,44.512Q244.224,44.044,244.998,43.054Q245.772,42.064,245.772,40.623999999999995L245.772,39.688L243.864,39.688Q240.66,39.688,239.13,40.39Q237.6,41.092,237.6,42.568Q237.6,43.648,238.446,44.314Q239.292,44.98,240.732,44.98ZM254.448,47.896L254.376,28.096L258.408,28.096L258.408,31.804L258.58799999999997,31.804Q259.74,29.788,261.61199999999997,28.69Q263.48400000000004,27.592,265.932,27.592L266.148,27.592L266.148,31.66L265.824,31.66Q262.296,31.66,260.352,33.172Q258.408,34.684,258.408,37.096000000000004L258.408,47.896L254.448,47.896ZM291.06,47.896L285.804,47.896L275.18399999999997,35.116L273.456,36.844L273.456,47.896L269.38800000000003,47.896L269.38800000000003,20.067999999999998L273.456,20.067999999999998L273.456,31.624L284.616,20.067999999999998L290.23199999999997,20.067999999999998L278.06399999999996,32.236000000000004L291.06,47.896ZM298.98,21.58Q298.98,22.732,298.278,23.416Q297.576,24.1,296.424,24.1Q295.308,24.1,294.642,23.416Q293.976,22.732,293.976,21.58Q293.976,20.428,294.642,19.744Q295.308,19.060000000000002,296.424,19.060000000000002Q297.576,19.060000000000002,298.278,19.744Q298.98,20.428,298.98,21.58ZM298.44,28.096L298.44,47.896L294.51599999999996,47.896L294.51599999999996,28.096L298.44,28.096ZM314.496,31.804L308.988,31.804L308.988,41.848Q308.988,43.288,309.762,44.08Q310.536,44.872,311.94,44.872Q312.948,44.872,314.06399999999996,44.476L314.06399999999996,48.148Q312.696,48.616,311.076,48.616Q308.15999999999997,48.616,306.61199999999997,46.978Q305.06399999999996,45.34,305.06399999999996,42.28L305.06399999999996,31.804L301.96799999999996,31.804L301.96799999999996,28.096L305.06399999999996,28.096L305.06399999999996,22.048000000000002L308.988,22.048000000000002L308.988,28.096L314.496,28.096L314.496,31.804Z" fill="#3D3D3D" fill-opacity="1"/></g></g></svg>